<svg id="Layer_1" data-name="Layer 1" xmlns="http://www.w3.org/2000/svg" viewBox="0 0 176.28 218.14"><defs><style>.cls-1{fill:#8e56fc;}.cls-2{fill:#8e55fc;}</style></defs><title>abiso-log</title><path class="cls-1" d="M171.49,234.31l-80.31-31c-4.85,11.67-9.88,22.78-14,34.21-1.89,5.23-4.6,6.79-9.81,6.45-6.37-.41-12.8-.1-20.69-.1,1.61-4.06,2.86-7.25,4.15-10.44,6.27-15.52,12.67-31,18.75-46.61,1.71-4.4,3.78-6.45,9-6.53,13.53-.22,26.38,1,39.11,6.66,17.56,7.84,35.82,14.12,53.79,21,2.74,1,5.57,1.89,10.62,3.58l-12.35-31.09c9.06,0,17-.11,24.88.11a5.14,5.14,0,0,1,3.85,2.41c8.21,19.76,16.24,39.6,24.47,59.82C204.19,246.67,187.89,242.14,171.49,234.31Z" transform="translate(-46.67 -26.08)"/><path class="cls-2" d="M105.61,98.52c9.67-23.81,19-47,29.29-72.44L190,161.6c-9.17,0-16.9.42-24.53-.28-2.11-.2-4.71-3.41-5.73-5.81-6.76-15.95-13.14-32.06-19.68-48.09-1.33-3.27-2.85-6.47-5.13-11.63-6.53,15.77-12.4,29.75-18.1,43.79-9.39,23.13-9.35,23.15-34.44,21.91-.26,0-.5-.25-1.86-1C88.72,140.13,97,119.62,105.61,98.52Z" transform="translate(-46.67 -26.08)"/></svg>