<svg id="Layer_1" data-name="Layer 1" xmlns="http://www.w3.org/2000/svg" viewBox="0 0 1876.42 512"><defs><style>.cls-1{fill:#4f39f6;}.cls-2{fill:#00de00;stroke:#fff;stroke-miterlimit:10;stroke-width:7px;}</style></defs><title>Artboard 1</title><path class="cls-1" d="M179.71,86.05h57.67q12.13,0,24.28,0,12.49,0,25,0h14q6.6,0,13.19,0h4.81c29.76-.1,55.85,9.76,77.35,30.65,1.71,1.77,3.29,3.61,4.84,5.52l1.59,1.93a105.37,105.37,0,0,1,21.2,45l.36,1.71c1.44,7.85,1.22,15.74,1.21,23.69,0,1.65,0,3.31,0,5q0,6,0,12v14.05q0,13.32,0,26.62,0,12.15,0,24.28,0,12.51,0,25,0,7,0,14,0,6.58,0,13.18v4.81c.1,27.57-8.07,51.8-26.5,72.52l-2.21,2.68a58.75,58.75,0,0,1-7.46,7l-1.94,1.6a105.31,105.31,0,0,1-45,21.19l-1.71.36c-7.85,1.44-15.74,1.22-23.69,1.21H259.08q-12.13,0-24.27,0h-39q-6.58,0-13.18,0h-4.82c-27.56.09-51.8-8.07-72.51-26.51l-2.68-2.2a58.83,58.83,0,0,1-7-7.47L94,402a105.31,105.31,0,0,1-21.19-45l-.36-1.71c-1.44-7.85-1.22-15.74-1.21-23.69,0-1.65,0-3.31,0-5q0-6,0-12V273.89q0-12.13,0-24.28,0-12.51,0-25,0-7,0-14,0-6.59,0-13.18c0-1.6,0-3.21,0-4.81-.09-26.57,7.41-50.91,25.13-71.14l1.42-1.67a75.52,75.52,0,0,1,9.63-9.38l1.93-1.59a105.25,105.25,0,0,1,45-21.2l1.71-.36C163.87,85.82,171.75,86,179.71,86.05Zm53.2,69.1-1.62,1.61q-2.64,2.61-5.25,5.25l-3.68,3.66-8.64,8.65q-3.45,3.45-6.89,6.87-4.79,4.76-9.53,9.51l-3.63,3.61-5.06,5.07-1.51,1.49c-3.34,3.39-6,6.76-6.89,11.58.11,4.3.55,7.28,3.71,10.45,3.11,2.82,5.25,4.31,9.54,4.44l1.69.08c6.46-1,10.49-5.68,14.84-10.13l2.07-2.07q2.7-2.72,5.38-5.45c1.83-1.87,3.67-3.72,5.51-5.57q5.4-5.44,10.78-10.92v1.83q.07,22,.19,44.08,0,10.67.09,21.32,0,9.28.09,18.58c0,3.28,0,6.55,0,9.83q0,4.63,0,9.27c0,1.13,0,2.26,0,3.39l0,4.65v2.62c.37,5.14,1.51,9.62,5.44,13.22,3.4,2.51,6.52,3,10.69,2.76a13,13,0,0,0,8.61-5.1c2.87-4.25,3.15-8.26,3.17-13.33v-1.48c0-1.61,0-3.23,0-4.85,0-1.17,0-2.33,0-3.5q0-4.72,0-9.46l.06-9.89.09-18.74q.06-10.67.11-21.33.12-21.93.23-43.87l1.14,1.17q5.36,5.43,10.73,10.85,2.76,2.77,5.51,5.58t5.33,5.38c.68.68,1.35,1.37,2,2.05,5.95,6.11,5.95,6.11,13.75,9.18,4.7-.06,7.69-1,11-4.32,2.58-2.88,3.74-5,3.86-8.95l.08-1.69c-.85-5.71-4.57-9.42-8.51-13.3l-1.65-1.66c-1.8-1.81-3.6-3.6-5.41-5.4l-3.77-3.77-7.9-7.87q-4.56-4.54-9.1-9.1-4.38-4.4-8.78-8.77l-3.73-3.73-5.21-5.19-1.55-1.55c-3.71-3.66-6.88-6.15-12.28-6.21l-2-.07C240.75,146.94,236.74,151.29,232.91,155.15ZM127,309.93c-2.84,4.2-3.15,8.15-3.17,13.17v1.41c0,1.52,0,3,0,4.56,0,1.06,0,2.13,0,3.19V339q0,4.26,0,8.53v6.59c0,1.05,0,2.1,0,3.15-.22,10.2-.22,10.2,4.31,19.08,4.29,3.39,8.17,4.22,13.61,4.23H266.11l32.81,0h53.33c6,0,11.35-.27,16.15-4.32,3.62-4.59,4.22-8.7,4.24-14.49V360.4c0-1.52,0-3,0-4.56v-3.19q0-3.34,0-6.69,0-4.26,0-8.53c0-2.2,0-4.39,0-6.59,0-1,0-2.1,0-3.15.21-10.2.21-10.2-4.31-19.07a13.75,13.75,0,0,0-9.67-3.89c-4,.19-6.77,1.1-9.67,3.89-9.43,11.47-4.14,33.24-4.14,44.19H151.55V318.28c-1.32-5.29-2.22-8.43-6.56-11.65A13.87,13.87,0,0,0,127,309.93Z"/><circle class="cls-2" cx="407.27" cy="101.04" r="67.97"/><path class="cls-1" d="M669.43,155V343.83H625.81v-77.4H550.53v77.4H506.91V155h43.62v73.15h75.28V155Z"/><path class="cls-1" d="M766.79,346.49q-18.09,0-31.79-5.64a67.92,67.92,0,0,1-38-38.73A75.08,75.08,0,0,1,692,275.07a74,74,0,0,1,5.06-27.3,70.22,70.22,0,0,1,14.49-22.85A65.65,65.65,0,0,1,735,209.3q14-5.64,31.79-5.65t31.65,5.65a67.18,67.18,0,0,1,23.41,15.62,69.14,69.14,0,0,1,14.63,22.85,74,74,0,0,1,5.06,27.3,75.09,75.09,0,0,1-4.93,27.05,67.63,67.63,0,0,1-38.17,38.73Q784.61,346.49,766.79,346.49Zm-31.12-71.42a39.74,39.74,0,0,0,4.12,18.41,32.39,32.39,0,0,0,11,12.57,30.15,30.15,0,0,0,31.79,0,31.24,31.24,0,0,0,11-12.44,45,45,0,0,0,0-37.07,32.2,32.2,0,0,0-11-12.58,29.34,29.34,0,0,0-31.53-.13,33.38,33.38,0,0,0-11.17,12.58A39.24,39.24,0,0,0,735.67,275.07Z"/><path class="cls-1" d="M916,346.49a103.18,103.18,0,0,1-34.71-6,79.65,79.65,0,0,1-28.86-17.42l14.89-26.6a104,104,0,0,0,24.61,14,63.35,63.35,0,0,0,22.74,4.66q8,0,12.64-2.39a8,8,0,0,0,4.65-7.64,7.09,7.09,0,0,0-2.79-6,33,33,0,0,0-8.11-4.06q-5.33-2-13.31-4.06-15.94-5.51-26.59-10.35t-16-12.06q-5.33-7.2-5.33-18.74,0-13.89,7.19-24.24t20.08-16.12q12.9-5.76,31-5.77a90.31,90.31,0,0,1,28.19,4.52,71.11,71.11,0,0,1,25.81,15.43l-16.76,26.34a104.31,104.31,0,0,0-21.15-12A49.61,49.61,0,0,0,916,234.24a30.38,30.38,0,0,0-8.25,1,12.82,12.82,0,0,0-6,3.39,9,9,0,0,0-2.26,6.53,8.75,8.75,0,0,0,2.26,6.13,17,17,0,0,0,7.18,4.18q4.92,1.69,12.11,3.78a274.2,274.2,0,0,1,29.12,10.19q11.58,5,17.29,12.53t5.72,19.84q0,20.88-15.43,32.76T916,346.49Z"/><path class="cls-1" d="M1084.92,336.12a116.21,116.21,0,0,1-12.64,5.05,110.51,110.51,0,0,1-14.63,3.86,80.91,80.91,0,0,1-15.29,1.46,51.64,51.64,0,0,1-19.42-3.53,29.92,29.92,0,0,1-14.1-11.67q-5.33-8.12-5.32-21.5V238.23H985.7V205.78h17.82V161.09h42.56v44.69h28.2v32.45h-28.2v56.43q.27,7,3.46,10c2.13,2,5.06,3,8.78,3a29.24,29.24,0,0,0,9.71-1.73q4.92-1.73,8.91-3.06Z"/><path class="cls-1" d="M1165,346.49q-17.82,0-31.66-5.65a70.53,70.53,0,0,1-23.54-15.38A66,66,0,0,1,1095,303a71.86,71.86,0,0,1-5-26.7,74.65,74.65,0,0,1,8.91-36.31,68.16,68.16,0,0,1,25.67-26.34q16.76-10,40.43-10t40.43,9.85a65.8,65.8,0,0,1,25.4,26.14,73.45,73.45,0,0,1,8.65,34.94,65.92,65.92,0,0,1-.4,7.22c-.27,2.37-.49,4.42-.67,6.17H1135.2a27.5,27.5,0,0,0,16.49,24.57,34.66,34.66,0,0,0,14.36,3.1,37.79,37.79,0,0,0,18.22-4.52q8.38-4.53,11.31-12l36.17,10.37a58.26,58.26,0,0,1-14.89,19,76,76,0,0,1-22.74,13A82.67,82.67,0,0,1,1165,346.49Zm-30.59-84.58h60.38a31,31,0,0,0-5-14.73,30.09,30.09,0,0,0-10.64-9.74,32.65,32.65,0,0,0-29.26,0,27.65,27.65,0,0,0-10.64,9.61A32.25,32.25,0,0,0,1134.4,261.91Z"/><path class="cls-1" d="M1347.2,240.63a75.66,75.66,0,0,0-27.93,4.92q-12.51,4.92-18.09,14.49v83.79h-42.56v-138h38.83v26.6q7.46-14.1,18.89-22.08t23.94-8.24h4.26a14.19,14.19,0,0,1,2.66.26Z"/><path class="cls-1" d="M1354.64,302.59a38.83,38.83,0,0,1,7.72-23.79q7.71-10.38,21.28-16.3t31.12-5.91a96.34,96.34,0,0,1,16.76,1.46,64.8,64.8,0,0,1,14.36,4.12v-6.1q0-11.31-6.91-17.1t-21-5.79a60.26,60.26,0,0,0-21.81,4,117.53,117.53,0,0,0-21.81,11.44l-12.77-27.14A108.17,108.17,0,0,1,1390.42,208a113.1,113.1,0,0,1,31.79-4.39q31.38,0,48.81,14.64t17.42,42.86v35.54q0,6.29,2,8.89c1.33,1.75,3.59,2.7,6.78,2.88v35.37a63.09,63.09,0,0,1-9.84,1.73q-4.53.4-8,.4-12,0-18.09-4.79a22.12,22.12,0,0,1-8-13l-1.06-6.12a60.07,60.07,0,0,1-22,18.22,61.13,61.13,0,0,1-27,6.25,53.76,53.76,0,0,1-24.87-5.65A43.92,43.92,0,0,1,1361,325.2,41.07,41.07,0,0,1,1354.64,302.59Zm84.59,5a20.81,20.81,0,0,0,4.79-5.29,10.28,10.28,0,0,0,1.86-5.29V284.92a62.67,62.67,0,0,0-12-3.23,71.88,71.88,0,0,0-12.23-1.16q-11.45,0-19.16,5.16t-7.71,13.17a15,15,0,0,0,2.66,8.39,17.45,17.45,0,0,0,7.32,6.19,25.54,25.54,0,0,0,11,2.2,38.86,38.86,0,0,0,12.77-2.2A32.56,32.56,0,0,0,1439.23,307.63Z"/><path class="cls-1" d="M1514,343.83a115.89,115.89,0,0,1,2-22.61,62.54,62.54,0,0,1,6.65-18.3,61.11,61.11,0,0,1,12.5-15.48,85.89,85.89,0,0,1,19.82-13.06q12.49-7,20.88-11.71t13.3-8.07a28.68,28.68,0,0,0,7.05-6.33,11.23,11.23,0,0,0,2.13-6.73,16.31,16.31,0,0,0-2.39-9,16.77,16.77,0,0,0-6.92-5.95,25.38,25.38,0,0,0-11.17-2.21,37.86,37.86,0,0,0-10.11,1.33,36.84,36.84,0,0,0-9.18,4A62.84,62.84,0,0,0,1550,236a55.25,55.25,0,0,0-7.58,8.11l-27.13-31.38a58.92,58.92,0,0,1,11.44-9.18,92.78,92.78,0,0,1,16.09-8,127.07,127.07,0,0,1,19.82-5.85,108.38,108.38,0,0,1,22.6-2.26q19.15,0,32.32,5.79t20.09,16.28q6.91,10.5,6.91,25a42.29,42.29,0,0,1-10.11,28.31,68.22,68.22,0,0,1-10.1,9.62,118.72,118.72,0,0,1-11.44,7.86q-6.39,3.26-11.84,6.37l-10.37,6a76.75,76.75,0,0,0-9,6.09q-4.12,3.25-7.84,6.78h73.68v38.3Z"/><path class="cls-1" d="M1737.15,377.62V341.17h-73.68v-38l87-111.19h29.26V302.87h23.41v38.3h-23.41v36.45Zm-31.39-74.75h35.91V255.79Z"/></svg>