<svg id="Layer_1" data-name="Layer 1" xmlns="http://www.w3.org/2000/svg" viewBox="0 0 494.33 502.46"><defs><style>.cls-1{fill:#4f39f6;}.cls-2{fill:#00de00;stroke:#fff;stroke-miterlimit:10;stroke-width:7px;}</style></defs><title>hosting-logo</title><path class="cls-1" d="M178.74,77.28h57.67q12.15,0,24.28,0,12.51,0,25,0h32c29.76-.1,55.86,9.76,77.36,30.65,1.71,1.77,3.28,3.61,4.83,5.52l1.59,1.93a105.25,105.25,0,0,1,21.2,45c.12.57.24,1.13.36,1.71,1.44,7.85,1.22,15.74,1.21,23.69,0,1.65,0,3.31,0,5q0,6,0,12V214c0,1,0,1.89,0,2.84v26.63q0,12.14,0,24.27,0,12.51,0,25,0,7,0,14,0,6.59,0,13.18c0,1.61,0,3.21,0,4.82.09,27.56-8.07,51.8-26.51,72.51-.74.89-1.47,1.78-2.2,2.68a58.83,58.83,0,0,1-7.47,7l-1.94,1.6a105.31,105.31,0,0,1-45,21.19l-1.71.36c-7.85,1.44-15.74,1.22-23.69,1.21H284.74q-13.31,0-26.62,0-12.13,0-24.28,0-12.51,0-25,0h-32c-27.57.09-51.8-8.07-72.52-26.51l-2.68-2.2a58.83,58.83,0,0,1-7-7.47L93,393.21a105.31,105.31,0,0,1-21.19-45l-.36-1.71c-1.44-7.85-1.22-15.73-1.21-23.69,0-1.65,0-3.31,0-5q0-6,0-12V291.74q0-13.31,0-26.62,0-12.14,0-24.28,0-12.5,0-25,0-7,0-14,0-6.6,0-13.19v-4.81c-.09-26.57,7.4-50.91,25.12-71.14L96.75,111a75.52,75.52,0,0,1,9.63-9.38l1.93-1.59a105.25,105.25,0,0,1,45-21.2l1.71-.36C162.9,77.05,170.79,77.27,178.74,77.28Zm53.2,69.1L230.32,148c-1.76,1.74-3.5,3.49-5.25,5.25l-3.67,3.66q-4.34,4.32-8.65,8.65-3.44,3.45-6.89,6.87l-9.53,9.51-3.63,3.62q-2.53,2.52-5,5.06l-1.51,1.49c-3.34,3.39-6,6.77-6.9,11.59.11,4.29.55,7.27,3.71,10.44,3.11,2.83,5.25,4.31,9.54,4.44l1.69.08c6.47-1,10.49-5.68,14.84-10.12l2.07-2.08q2.7-2.72,5.38-5.45c1.83-1.86,3.68-3.72,5.52-5.57q5.4-5.44,10.77-10.91v1.82q.09,22,.19,44.08.06,10.67.09,21.32,0,9.28.09,18.58,0,4.92,0,9.83,0,4.64,0,9.27c0,1.13,0,2.26,0,3.39,0,1.55,0,3.1,0,4.65v2.63c.37,5.13,1.52,9.62,5.44,13.21,3.4,2.52,6.52,3,10.7,2.76A13,13,0,0,0,258,311c2.88-4.25,3.15-8.25,3.18-13.33v-1.47c0-1.62,0-3.24,0-4.86,0-1.17,0-2.33,0-3.49,0-3.16,0-6.31.05-9.47s0-6.59,0-9.89q0-9.37.1-18.74,0-10.67.11-21.33.1-21.93.22-43.86l1.14,1.16q5.35,5.43,10.73,10.85,2.76,2.78,5.51,5.58t5.33,5.38l2,2.06c5.94,6.1,5.94,6.1,13.74,9.17,4.71-.06,7.69-1,11.05-4.31,2.58-2.89,3.74-5,3.86-9l.08-1.69c-.85-5.71-4.57-9.42-8.5-13.3l-1.66-1.66c-1.8-1.81-3.6-3.6-5.41-5.4l-3.77-3.77c-2.62-2.63-5.26-5.25-7.89-7.87l-9.11-9.09q-4.38-4.39-8.78-8.78l-3.73-3.73L261.18,145l-1.55-1.55c-3.7-3.65-6.87-6.15-12.28-6.21l-2-.07C239.79,138.17,235.78,142.52,231.94,146.38ZM126,301.16c-2.84,4.2-3.15,8.15-3.16,13.18v1.4c0,1.52,0,3,0,4.56,0,1.07,0,2.13,0,3.19v6.69c0,2.84,0,5.69,0,8.53q0,3.3,0,6.59c0,1.05,0,2.1,0,3.15-.21,10.21-.21,10.21,4.31,19.08,4.29,3.39,8.17,4.22,13.61,4.23H265.14l32.82,0h42.1q4.33,0,8.68,0h2.54c6,0,11.35-.27,16.15-4.32,3.63-4.59,4.23-8.7,4.25-14.49v-1.41c0-1.52,0-3,0-4.56,0-1.06,0-2.13,0-3.19v-6.69q0-4.26,0-8.53,0-3.29,0-6.59c0-1.05,0-2.1,0-3.14.22-10.21.22-10.21-4.31-19.08a13.75,13.75,0,0,0-9.67-3.89c-4,.19-6.76,1.1-9.67,3.89-9.42,11.47-4.14,33.25-4.14,44.2H150.58V309.52c-1.32-5.29-2.22-8.44-6.56-11.66A13.88,13.88,0,0,0,126,301.16Z"/><circle class="cls-2" cx="406.31" cy="92.27" r="67.97"/></svg>