<svg id="Layer_1" data-name="Layer 1" xmlns="http://www.w3.org/2000/svg" viewBox="0 0 2393.82 557.75"><defs><style>.cls-1{fill:#00de00;stroke:#fff;stroke-miterlimit:10;stroke-width:7px;}.cls-2{font-size:286px;font-family:Impact;}</style></defs><title>hosting-logo</title><path d="M179.71,87.24h57.67q12.13,0,24.28,0,12.49,0,25,0h14q6.6,0,13.19,0h4.81c29.76-.1,55.85,9.76,77.35,30.65,1.71,1.77,3.29,3.61,4.84,5.52l1.59,1.93a105.37,105.37,0,0,1,21.2,45L424,172c1.44,7.85,1.22,15.74,1.21,23.69,0,1.65,0,3.31,0,5q0,6,0,12v14.05q0,13.32,0,26.62,0,12.15,0,24.28,0,12.51,0,25,0,7,0,14,0,6.58,0,13.18v4.81c.1,27.57-8.07,51.81-26.5,72.52l-2.21,2.68a58.75,58.75,0,0,1-7.46,7l-1.94,1.6a105.31,105.31,0,0,1-45,21.19l-1.71.36c-7.85,1.44-15.74,1.22-23.69,1.21H259.08q-12.13,0-24.27,0h-39q-6.58,0-13.18,0h-4.82c-27.56.09-51.8-8.07-72.51-26.51l-2.68-2.2a58.83,58.83,0,0,1-7-7.47L94,403.17a105.31,105.31,0,0,1-21.19-45l-.36-1.71c-1.44-7.85-1.22-15.74-1.21-23.69,0-1.65,0-3.31,0-5q0-6,0-12V275.08q0-12.13,0-24.28,0-12.5,0-25,0-7,0-14,0-6.59,0-13.18c0-1.6,0-3.21,0-4.81-.09-26.57,7.41-50.91,25.13-71.14L97.72,121a75.52,75.52,0,0,1,9.63-9.38l1.93-1.59a105.25,105.25,0,0,1,45-21.2l1.71-.36C163.87,87,171.75,87.23,179.71,87.24Zm53.2,69.1L231.29,158q-2.64,2.61-5.25,5.25l-3.68,3.66-8.64,8.65q-3.45,3.45-6.89,6.87-4.79,4.76-9.53,9.51l-3.63,3.62-5.06,5.06-1.51,1.49c-3.34,3.39-6,6.77-6.89,11.58.11,4.3.55,7.28,3.71,10.45,3.11,2.82,5.25,4.31,9.54,4.44l1.69.08c6.46-1,10.49-5.68,14.84-10.13l2.07-2.07q2.7-2.72,5.38-5.45t5.51-5.57q5.4-5.44,10.78-10.91v1.82q.07,22,.19,44.08,0,10.67.09,21.32,0,9.29.09,18.58c0,3.28,0,6.56,0,9.83q0,4.63,0,9.27c0,1.13,0,2.26,0,3.39l0,4.65V310c.37,5.14,1.51,9.62,5.44,13.22,3.4,2.51,6.52,3,10.69,2.76a13,13,0,0,0,8.61-5.1c2.87-4.25,3.15-8.25,3.17-13.33v-1.47c0-1.62,0-3.24,0-4.86,0-1.17,0-2.33,0-3.49,0-3.16,0-6.31,0-9.47l.06-9.89.09-18.74q.06-10.67.11-21.33.12-21.93.23-43.86l1.14,1.16q5.36,5.43,10.73,10.85,2.76,2.77,5.51,5.58t5.33,5.38c.68.68,1.35,1.37,2,2.05,5.95,6.11,5.95,6.11,13.75,9.18,4.7-.06,7.69-1,11-4.31,2.58-2.89,3.74-5,3.86-9l.08-1.69c-.85-5.71-4.57-9.42-8.51-13.3l-1.65-1.66c-1.8-1.81-3.6-3.6-5.41-5.4l-3.77-3.77-7.9-7.87q-4.56-4.54-9.1-9.1-4.38-4.4-8.78-8.77-1.87-1.86-3.73-3.73l-5.21-5.19-1.55-1.55c-3.71-3.66-6.88-6.15-12.28-6.21l-2-.07C240.75,148.13,236.74,152.48,232.91,156.34ZM127,311.12c-2.84,4.2-3.15,8.15-3.17,13.18v1.4c0,1.52,0,3,0,4.56,0,1.06,0,2.13,0,3.19v6.69c0,2.84,0,5.69,0,8.53v6.59c0,1.05,0,2.1,0,3.15-.22,10.21-.22,10.21,4.31,19.08,4.29,3.39,8.17,4.22,13.61,4.23H266.11l32.81,0h53.33c6,0,11.35-.27,16.15-4.32,3.62-4.59,4.22-8.7,4.24-14.49v-1.41c0-1.52,0-3,0-4.56v-3.19q0-3.34,0-6.69,0-4.26,0-8.53c0-2.2,0-4.39,0-6.59,0-1,0-2.1,0-3.14.21-10.21.21-10.21-4.31-19.08a13.75,13.75,0,0,0-9.67-3.89c-4,.19-6.77,1.1-9.67,3.89-9.43,11.47-4.14,33.24-4.14,44.19H151.55V319.47c-1.32-5.29-2.22-8.43-6.56-11.65A13.87,13.87,0,0,0,127,311.12Z" transform="translate(-71.17 -30.76)"/><circle class="cls-1" cx="336.1" cy="71.47" r="67.97"/><text x="-71.17" y="-30.76"/><text x="-71.17" y="-30.76"/><text class="cls-2" transform="translate(386.65 341.39)">Strelements.com</text></svg>