<?xml version="1.0" encoding="utf-8"?>
<!-- Generator: Adobe Illustrator 23.1.0, SVG Export Plug-In . SVG Version: 6.00 Build 0)  -->
<svg version="1.1" id="Layer_1" xmlns="http://www.w3.org/2000/svg" xmlns:xlink="http://www.w3.org/1999/xlink" x="0px" y="0px"
	 viewBox="0 0 223.5 111" style="enable-background:new 0 0 223.5 111;" xml:space="preserve">
<style type="text/css">
	.st0{fill:#FFFFFF;stroke:#000000;stroke-miterlimit:10;}
	.st1{fill:#141413;}
	.st2{font-family:'Arial-BoldMT';}
	.st3{font-size:14px;}
	.st4{fill:none;}
	.st5{fill:#3D3D3A;}
	.st6{font-family:'ArialMT';}
	.st7{font-size:12px;}
	.st8{fill:#1B2A3B;}
	.st9{fill:#FFFFFF;}
	.st10{font-size:13px;}
</style>
<title>project_upload_exact_sqare</title>
<path class="st0" d="M5.3,0.5h214.8c1.8,0,3.3,2.7,3.3,6v98c0,3.3-1.5,6-3.3,6H5.3c-1.8,0-3.3-2.7-3.3-6v-98C2,3.2,3.5,0.5,5.3,0.5z
	"/>
<text transform="matrix(1 0 0 1 18 22.5)" class="st1 st2 st3">Project Upload</text>
<line class="st4" x1="0" y1="32.5" x2="400" y2="32.5"/>
<text transform="matrix(1 0 0 1 18 56.5)" class="st5 st6 st7">ZI</text>
<text transform="matrix(1 0 0 1 28.66 56.5)" class="st5 st6 st7">P</text>
<text transform="matrix(1 0 0 1 36.45 56.5)" class="st5 st6 st7"> file</text>
<path class="st8" d="M23,66.5h94c2.8,0,5,2.2,5,5v22c0,2.8-2.2,5-5,5H23c-2.8,0-5-2.2-5-5v-22C18,68.7,20.2,66.5,23,66.5z"/>
<text transform="matrix(1 0 0 1 35.32 87.5)" class="st9 st6 st10">Choose File</text>
<text transform="matrix(1 0 0 1 134 87.5)" class="st5 st6 st7">No file chosen</text>
</svg>
