<svg id="Layer_1" data-name="Layer 1" xmlns="http://www.w3.org/2000/svg" viewBox="0 0 533.97 189.8"><defs><style>.cls-1{fill:#1cbaed;}.cls-2{fill:#41e0a3;}.cls-3{fill:#3c20b2;}.cls-4{fill:#5823db;}.cls-5{fill:#0c9ad8;}.cls-6{fill:#666;}</style></defs><title>Reko Packaging Logo - With Registered Mark)</title><polygon class="cls-1" points="111.86 31.89 56.71 63.74 1.55 31.89 1.55 31.84 56.71 0 111.86 31.89"/><polygon class="cls-2" points="151.28 152.62 96.14 184.46 64.26 136.26 119.41 104.41 151.28 152.62"/><polygon class="cls-3" points="55.16 138.26 55.16 158.42 0 189.8 0 106.42 55.16 138.26"/><polygon class="cls-4" points="55.16 67.92 55.16 131.6 0 99.76 55.16 67.92"/><polygon class="cls-5" points="116.04 36.07 116.04 99.76 60.89 131.6 60.89 67.92 116.04 36.07"/><path d="M288.86,143.09l-10.06-22.9a10.76,10.76,0,0,0-3-4.19c-1.09-.82-2.91-1.24-5.42-1.24H256.13v28.33H238.52V57.79h40.92c9.74,0,17,2.6,21.55,7.72s6.87,12.15,6.87,20.84A23.89,23.89,0,0,1,291,110.12l-.3.1.24.2a15.34,15.34,0,0,1,3.36,3.68,34,34,0,0,1,2.58,5.29l10.27,23.7Zm-32.73-42.87h18.66c4.72,0,8.46-1.07,11.14-3.17S290,91.34,290,86.35c0-4.82-1.18-8.39-3.51-10.64s-5.91-3.37-10.63-3.37H256.13Z" transform="translate(-60.34 -29.33)"/><polygon points="258.38 113.76 258.38 28.46 319.48 28.46 319.48 42.08 275.99 42.08 275.99 64.37 314.56 64.37 314.56 77.85 275.99 77.85 275.99 100.28 319.48 100.28 319.48 113.76 258.38 113.76"/><polygon points="385.22 113.76 360.55 74.15 348.91 86.74 348.91 113.76 331.3 113.76 331.3 28.46 348.91 28.46 348.91 65.04 382.14 28.46 402.29 28.46 371.47 62.98 403.96 113.76 385.22 113.76"/><path d="M506.62,144.42c-27.5,0-41.45-14.66-41.45-43.58,0-15.57,3.52-27,10.46-33.92s17.36-10.46,31-10.46,24.06,3.52,31,10.46,10.46,18.35,10.46,33.92C548.08,129.76,534.13,144.42,506.62,144.42Zm0-73c-8.08,0-14.1,2.24-17.88,6.64S483,90.12,483,100.84c0,9.66,1.92,16.93,5.7,21.59s9.8,7,17.88,7,14.11-2.37,17.89-7,5.69-11.93,5.69-21.59c0-10.72-1.91-18.39-5.69-22.79S514.71,71.41,506.62,71.41Z" transform="translate(-60.34 -29.33)"/><path class="cls-6" d="M238.52,191.41v-38h16.92a14.14,14.14,0,0,1,7.19,1.65,10.22,10.22,0,0,1,4.18,4.51,15,15,0,0,1,1.36,6.51,12.09,12.09,0,0,1-3.51,9.08q-3.51,3.42-9.46,3.42H245v12.79ZM245,173.55H254a7.73,7.73,0,0,0,5.78-2,7.49,7.49,0,0,0,1.94-5.43,8,8,0,0,0-1.85-5.65,7.23,7.23,0,0,0-5.57-2H245Z" transform="translate(-60.34 -29.33)"/><path class="cls-6" d="M269.16,191.41l14.5-38h7.19l14.38,38h-6.6l-3.77-9.78H279.59l-3.77,9.78Zm11.44-14.73h13.2l-6.6-17.39Z" transform="translate(-60.34 -29.33)"/><path class="cls-6" d="M327.51,192q-9.36,0-14.17-5.13T308.54,173a25.91,25.91,0,0,1,2-10.75,14.94,14.94,0,0,1,6.22-7,20.89,20.89,0,0,1,10.66-2.45,33.43,33.43,0,0,1,11.14,1.83v5.6a26.31,26.31,0,0,0-5-1.44,30,30,0,0,0-5.62-.5q-7.08,0-10,3.77T315,173q0,6.66,3.18,10.11t9.84,3.45a33.7,33.7,0,0,0,5.46-.45,24.82,24.82,0,0,0,5.15-1.38v5.66a32.34,32.34,0,0,1-5.1,1.18A41.37,41.37,0,0,1,327.51,192Z" transform="translate(-60.34 -29.33)"/><path class="cls-6" d="M345.54,191.41v-38H352V170.9l16.15-17.45h7.42l-14,15.33,14.55,22.63H369.3l-11.73-18.57-5.6,6v12.55Z" transform="translate(-60.34 -29.33)"/><path class="cls-6" d="M381.85,191.41l14.5-38h7.19l14.38,38h-6.6l-3.77-9.78H392.29l-3.77,9.78Zm11.44-14.73h13.2l-6.6-17.39Z" transform="translate(-60.34 -29.33)"/><path class="cls-6" d="M440.12,192q-9.36,0-14.11-5.07t-4.75-13.73a26,26,0,0,1,2.07-10.82,15.19,15.19,0,0,1,6.27-7,20.89,20.89,0,0,1,10.7-2.48,37.84,37.84,0,0,1,6.1.45,30.9,30.9,0,0,1,5.16,1.26v5.54a31,31,0,0,0-10.73-1.76q-7.24,0-10.17,3.83t-2.91,11q0,6.54,3.06,10t9.49,3.42a23.51,23.51,0,0,0,8.19-1.18V174.79H439v-4.18h15v18.26a19.91,19.91,0,0,1-5.21,2.16A32.36,32.36,0,0,1,440.12,192Z" transform="translate(-60.34 -29.33)"/><path class="cls-6" d="M461.61,191.41v-38H468v38Z" transform="translate(-60.34 -29.33)"/><path class="cls-6" d="M476.48,191.41v-38h5.66l19.8,27.94V153.45h6.37v38h-5.66l-19.74-27.88v27.88Z" transform="translate(-60.34 -29.33)"/><path class="cls-6" d="M534.23,192q-9.37,0-14.12-5.07t-4.74-13.73a26,26,0,0,1,2.06-10.82,15.21,15.21,0,0,1,6.28-7,20.83,20.83,0,0,1,10.69-2.48,37.75,37.75,0,0,1,6.1.45,30.9,30.9,0,0,1,5.16,1.26v5.54a31,31,0,0,0-10.73-1.76q-7.24,0-10.16,3.83t-2.92,11q0,6.54,3.06,10t9.49,3.42a23.61,23.61,0,0,0,8.2-1.18V174.79h-9.49v-4.18h15v18.26a20,20,0,0,1-5.22,2.16A32.33,32.33,0,0,1,534.23,192Z" transform="translate(-60.34 -29.33)"/><path d="M578.13,89.1a15.75,15.75,0,0,1-6.29-1.27,16.54,16.54,0,0,1-8.63-8.63,16.31,16.31,0,0,1,0-12.57A16.45,16.45,0,0,1,571.84,58a16.21,16.21,0,0,1,12.58,0,16.68,16.68,0,0,1,5.14,3.48A16.38,16.38,0,0,1,593,66.63a16.19,16.19,0,0,1,0,12.57,16.22,16.22,0,0,1-3.48,5.14,16.53,16.53,0,0,1-5.14,3.49A15.75,15.75,0,0,1,578.13,89.1Zm0-4.15a11.67,11.67,0,0,0,6-1.56,11.55,11.55,0,0,0,4.21-4.26,13.16,13.16,0,0,0,0-12.43,11.35,11.35,0,0,0-4.21-4.24,12.5,12.5,0,0,0-12,0,11.35,11.35,0,0,0-4.24,4.24,13.16,13.16,0,0,0,0,12.43,11.55,11.55,0,0,0,4.24,4.26A11.72,11.72,0,0,0,578.13,85Zm-7-3.07v-18h9.11a5.94,5.94,0,0,1,4.63,1.66,6.16,6.16,0,0,1,1.52,4.33q0,4.2-3.71,5.41a3.31,3.31,0,0,1,.63.74,5.42,5.42,0,0,1,.49,1l1.9,4.87h-4.19l-1.8-5a1.22,1.22,0,0,0-.64-.83,3.73,3.73,0,0,0-1.41-.19h-2.24v6Zm4.29-9.26h2.68a7.55,7.55,0,0,0,2.9-.46c.73-.31,1.1-1.08,1.1-2.32a2.52,2.52,0,0,0-.78-2.14,3.88,3.88,0,0,0-2.34-.59h-3.56Z" transform="translate(-60.34 -29.33)"/></svg>