<svg id="Layer_1" data-name="Layer 1" xmlns="http://www.w3.org/2000/svg" viewBox="0 0 402.34 287.64"><defs><style>.cls-1{fill:#f5f4ed;}.cls-2{fill:#faf9f5;}.cls-3{fill:#ff5f57;}.cls-4{fill:#febc2e;}.cls-5{fill:#28c840;}.cls-21,.cls-6{fill:#fff;}.cls-10,.cls-11,.cls-12,.cls-13,.cls-18,.cls-19,.cls-21,.cls-7,.cls-9{isolation:isolate;}.cls-21,.cls-7{font-size:10.8px;}.cls-11,.cls-13,.cls-7{fill:#3d3d3a;}.cls-10,.cls-11,.cls-12,.cls-18,.cls-19,.cls-21,.cls-7{font-family:ArialMT, Arial;}.cls-8{letter-spacing:-0.06em;}.cls-9{font-size:9px;}.cls-10,.cls-12,.cls-9{fill:#73726c;}.cls-13,.cls-9{font-family:MyriadPro-Regular, Myriad Pro;}.cls-10,.cls-18{font-size:12.6px;}.cls-11,.cls-12{font-size:14.4px;}.cls-13{font-size:13.5px;}.cls-14,.cls-15,.cls-22,.cls-26{fill:none;}.cls-14,.cls-15{stroke:#73726c;}.cls-14,.cls-15,.cls-22{stroke-miterlimit:3.6;}.cls-14,.cls-22{stroke-width:0.9px;}.cls-15{stroke-width:1.08px;}.cls-16{fill:#7f77dd;}.cls-17{fill:#eeedfe;}.cls-18,.cls-19{fill:#141413;}.cls-19{font-size:23.4px;}.cls-20{letter-spacing:-0.06em;}.cls-22{stroke:#7f77dd;}.cls-23{letter-spacing:-0.02em;}.cls-24{fill:#cecbf6;}.cls-25{fill:#9fe1cb;}.cls-26{stroke:#ef3c23;stroke-miterlimit:10;stroke-width:3px;}</style></defs><title>browser_localhost_3000</title><rect class="cls-1" width="576" height="396" rx="10.8"/><rect class="cls-2" width="576" height="36" rx="10.8"/><rect class="cls-2" y="23.4" width="576" height="12.6"/><circle class="cls-3" cx="27" cy="18" r="6.3"/><circle class="cls-4" cx="47.7" cy="18" r="6.3"/><circle class="cls-5" cx="68.4" cy="18" r="6.3"/><rect class="cls-6" x="88.2" y="6.3" width="144" height="23.4" rx="5.4"/><text class="cls-7" transform="translate(122.39 21.6)">My<tspan class="cls-8" x="14.4" y="0"> </tspan><tspan x="16.8" y="0">App</tspan></text><text class="cls-9" transform="translate(219.6 20.7)">✕</text><text class="cls-10" transform="translate(241.2 21.6)">+</text><rect class="cls-1" y="36" width="576" height="43.2"/><text class="cls-11" transform="translate(18 62.1)">←</text><text class="cls-12" transform="translate(41.4 62.1)">→</text><text class="cls-13" transform="translate(63 61.2)">↻</text><path class="cls-6" d="M97.2,45H486a12.6,12.6,0,0,1,12.6,12.6h0A12.6,12.6,0,0,1,486,70.2H97.2A12.6,12.6,0,0,1,84.6,57.6h0A12.6,12.6,0,0,1,97.2,45Z"/><rect class="cls-14" x="99" y="54" width="7.2" height="6.3" rx="0.9"/><rect class="cls-6" x="100.8" y="56.7" width="3.6" height="4.5" rx="0.9"/><path class="cls-15" d="M97.2,55.35q0-4.05,5.4-4.05t5.4,4.05"/><text class="cls-7" transform="translate(115.2 61.2)">localhost:3000</text><rect class="cls-6" y="79.2" width="576" height="316.8"/><rect class="cls-1" y="79.2" width="576" height="43.2"/><rect y="121.5" width="576" height="0.45"/><circle class="cls-16" cx="34.2" cy="100.8" r="9"/><circle class="cls-17" cx="34.2" cy="100.8" r="4.5"/><text class="cls-18" transform="translate(50.4 105.3)">Prism</text><text class="cls-7" transform="translate(144 105.3)">Home</text><text class="cls-7" transform="translate(189 105.3)">Docs</text><text class="cls-7" transform="translate(230.4 105.3)">Blog</text><text class="cls-19" transform="translate(154.02 175.5)">Build something beautiful.</text><text class="cls-18" transform="translate(101.37 196.2)"><tspan class="cls-20">A</tspan><tspan x="7.71" y="0" xml:space="preserve"> minimal starter for your next big idea. Fast, accessible, delightful.</tspan></text><path class="cls-16" d="M223.2,212.4h68.4A14.4,14.4,0,0,1,306,226.8h0a14.4,14.4,0,0,1-14.4,14.4H223.2a14.4,14.4,0,0,1-14.4-14.4h0A14.4,14.4,0,0,1,223.2,212.4Z"/><text class="cls-21" transform="translate(223.79 230.4)">Get started →</text><path class="cls-22" d="M331.2,212.4h52.2a14.4,14.4,0,0,1,14.4,14.4h0a14.4,14.4,0,0,1-14.4,14.4H331.2a14.4,14.4,0,0,1-14.4-14.4h0A14.4,14.4,0,0,1,331.2,212.4Z"/><text class="cls-7" transform="translate(332.79 230.4)"><tspan class="cls-23">V</tspan><tspan x="7.01" y="0">iew docs</tspan></text><rect class="cls-1" x="18" y="262.8" width="157.5" height="99" rx="9"/><rect class="cls-24" x="32.4" y="276.3" width="25.2" height="25.2" rx="7.2"/><rect class="cls-1" x="208.8" y="262.8" width="157.5" height="99" rx="9"/><rect class="cls-25" x="223.2" y="276.3" width="25.2" height="25.2" rx="7.2"/><rect class="cls-1" x="399.6" y="262.8" width="157.5" height="99" rx="9"/><text/><rect class="cls-26" x="84.6" y="36" width="119.78" height="42" rx="21"/></svg>