<svg xmlns="http://www.w3.org/2000/svg" width="640" height="480" viewBox="0 0 640 480">
  <defs>
    <linearGradient id="bg" x1="0" y1="0" x2="1" y2="1">
      <stop offset="0" stop-color="#f8fafc"/>
      <stop offset="1" stop-color="#e2e8f0"/>
    </linearGradient>
  </defs>

  <rect x="0" y="0" width="640" height="480" rx="28" fill="url(#bg)"/>

  <rect x="214" y="48" width="212" height="132" rx="16" fill="#ffffff" stroke="#64748b" stroke-width="5"/>
  <rect x="230" y="66" width="180" height="28" rx="8" fill="#e2e8f0" stroke="#94a3b8" stroke-width="2"/>
  <circle cx="248" cy="80" r="4" fill="#16a34a"/>
  <circle cx="262" cy="80" r="4" fill="#22c55e"/>
  <rect x="278" y="75" width="112" height="10" rx="5" fill="#94a3b8"/>
  <rect x="230" y="100" width="180" height="28" rx="8" fill="#e2e8f0" stroke="#94a3b8" stroke-width="2"/>
  <circle cx="248" cy="114" r="4" fill="#16a34a"/>
  <circle cx="262" cy="114" r="4" fill="#22c55e"/>
  <rect x="278" y="109" width="112" height="10" rx="5" fill="#94a3b8"/>
  <rect x="230" y="134" width="180" height="28" rx="8" fill="#e2e8f0" stroke="#94a3b8" stroke-width="2"/>
  <circle cx="248" cy="148" r="4" fill="#16a34a"/>
  <circle cx="262" cy="148" r="4" fill="#22c55e"/>
  <rect x="278" y="143" width="112" height="10" rx="5" fill="#94a3b8"/>

  <path d="M320 198 L320 262" stroke="#0f172a" stroke-width="12" stroke-linecap="round"/>
  <path d="M294 222 L320 196 L346 222" fill="none" stroke="#0f172a" stroke-width="12" stroke-linecap="round" stroke-linejoin="round"/>

  <rect x="90" y="276" width="460" height="166" rx="16" fill="#ffffff" stroke="#cbd5e1" stroke-width="4"/>
  <rect x="90" y="276" width="460" height="28" rx="16" fill="#f1f5f9"/>
  <circle cx="114" cy="290" r="5" fill="#94a3b8"/>
  <circle cx="132" cy="290" r="5" fill="#94a3b8"/>
  <circle cx="150" cy="290" r="5" fill="#94a3b8"/>
  <rect x="170" y="282" width="250" height="14" rx="7" fill="#e2e8f0"/>
  <text x="320" y="362" text-anchor="middle" font-family="Arial, sans-serif" font-size="24" fill="#0f172a">
    your-website.site
  </text>

  <text x="320" y="465" text-anchor="middle" font-family="Arial, sans-serif" font-size="18" fill="#334155">
    Website uploaded to server
  </text>
</svg>
